HIERARCHY
ROOT Hips
{
	OFFSET 0.000000 0.000000 0.000000
	CHANNELS 6 Xposition Yposition Zposition Xrotation Yrotation Zrotation
	JOINT LeftUpLeg_virtual
	{
		OFFSET 0.000000 0.000000 0.000000
		CHANNELS 3 Xrotation Yrotation Zrotation
		JOINT LeftUpLeg
		{
			OFFSET 11.394100 -6.187798 -0.413800
			CHANNELS 3 Xrotation Yrotation Zrotation
			JOINT LeftLeg
			{
				OFFSET 0.430247 -32.302673 3.732800
				CHANNELS 3 Xrotation Yrotation Zrotation
				JOINT LeftFoot
				{
					OFFSET -0.430247 -48.264931 -6.423300
					CHANNELS 3 Xrotation Yrotation Zrotation
					JOINT LeftToeBase
					{
						OFFSET 4.230900 -16.068199 23.438400
						CHANNELS 3 Xrotation Yrotation Zrotation
						JOINT LeftToe_End
						{
							OFFSET 4.510700 0.695400 19.974600
							CHANNELS 3 Xrotation Yrotation Zrotation
							End Site
							{
								OFFSET 0 0 0
							}
						}
					}
				}
			}
		}
	}
	JOINT RightUpLeg_virtual
	{
		OFFSET 0.000000 0.000000 0.000000
		CHANNELS 3 Xrotation Yrotation Zrotation
		JOINT RightUpLeg
		{
			OFFSET -11.333700 -6.187798 -0.413800
			CHANNELS 3 Xrotation Yrotation Zrotation
			JOINT RightLeg
			{
				OFFSET -0.430392 -32.302628 3.733000
				CHANNELS 3 Xrotation Yrotation Zrotation
				JOINT RightFoot
				{
					OFFSET 0.430392 -48.264973 -6.423500
					CHANNELS 3 Xrotation Yrotation Zrotation
					JOINT RightToeBase
					{
						OFFSET -4.230900 -16.068199 23.438400
						CHANNELS 3 Xrotation Yrotation Zrotation
						JOINT RightToe_End
						{
							OFFSET -4.510700 0.695400 19.974600
							CHANNELS 3 Xrotation Yrotation Zrotation
							End Site
							{
								OFFSET 0 0 0
							}
						}
					}
				}
			}
		}
	}
	JOINT Spine_virtual
	{
		OFFSET 0.000000 0.000000 0.000000
		CHANNELS 3 Xrotation Yrotation Zrotation
		JOINT Spine
		{
			OFFSET -0.002400 12.777504 0.315300
			CHANNELS 3 Xrotation Yrotation Zrotation
			JOINT Spine1
			{
				OFFSET -0.002067 5.816869 0.032633
				CHANNELS 3 Xrotation Yrotation Zrotation
				JOINT Spine1_split
				{
					OFFSET -0.002067 5.816869 0.032633
					CHANNELS 3 Xrotation Yrotation Zrotation
					JOINT Spine2
					{
						OFFSET -0.002067 5.816869 0.032633
						CHANNELS 3 Xrotation Yrotation Zrotation
						JOINT Neck_virtual
						{
							OFFSET 0.000000 0.000000 0.000000
							CHANNELS 3 Xrotation Yrotation Zrotation
							JOINT Neck
							{
								OFFSET -0.003700 21.199493 -0.826900
								CHANNELS 3 Xrotation Yrotation Zrotation
								JOINT Head
								{
									OFFSET 0.000000 20.442200 4.834800
									CHANNELS 3 Xrotation Yrotation Zrotation
									JOINT HeadTop_End
									{
										OFFSET 0.000000 34.668396 4.968400
										CHANNELS 3 Xrotation Yrotation Zrotation
										End Site
										{
											OFFSET 0 0 0
										}
									}
								}
							}
						}
						JOINT LeftShoulder_virtual
						{
							OFFSET 0.000000 0.000000 0.000000
							CHANNELS 3 Xrotation Yrotation Zrotation
							JOINT LeftShoulder
							{
								OFFSET 3.288150 8.794197 -1.372250
								CHANNELS 3 Xrotation Yrotation Zrotation
								JOINT LeftShoulder_split
								{
									OFFSET 3.288150 8.794197 -1.372250
									CHANNELS 3 Xrotation Yrotation Zrotation
									JOINT LeftArm
									{
										OFFSET 11.953299 -2.279007 -0.146200
										CHANNELS 3 Xrotation Yrotation Zrotation
										JOINT LeftForeArm
										{
											OFFSET 18.448900 0.000000 0.000000
											CHANNELS 3 Xrotation Yrotation Zrotation
											JOINT LeftHand
											{
												OFFSET 29.527798 0.000000 0.000000
												CHANNELS 3 Xrotation Yrotation Zrotation
												End Site
												{
													OFFSET 0 0 0
												}
											}
										}
									}
								}
							}
						}
						JOINT RightShoulder_virtual
						{
							OFFSET 0.000000 0.000000 0.000000
							CHANNELS 3 Xrotation Yrotation Zrotation
							JOINT RightShoulder
							{
								OFFSET -3.249400 8.794197 -1.372250
								CHANNELS 3 Xrotation Yrotation Zrotation
								JOINT RightShoulder_split
								{
									OFFSET -3.249400 8.794197 -1.372250
									CHANNELS 3 Xrotation Yrotation Zrotation
									JOINT RightArm
									{
										OFFSET -11.953299 -2.279007 -0.146200
										CHANNELS 3 Xrotation Yrotation Zrotation
										JOINT RightForeArm
										{
											OFFSET -18.448900 0.000000 0.000000
											CHANNELS 3 Xrotation Yrotation Zrotation
											JOINT RightHand
											{
												OFFSET -29.527802 0.000000 0.000000
												CHANNELS 3 Xrotation Yrotation Zrotation
												End Site
												{
													OFFSET 0 0 0
												}
											}
										}
									}
								}
							}
						}
					}
				}
			}
		}
	}
}
MOTION
Frames: 9
Frame Time: 0.03333333
-1.342739 81.144371 4.295887 0.000000 0.000000 0.000000 9.016104 -46.048193 11.071363 -68.887464 16.971772 41.981420 51.591363 -21.213413 6.147099 4.985639 2.910832 -17.263349 -3.125274 -3.579831 13.983031 0.000000 0.000000 0.000000 9.215809 -45.246424 11.982780 -32.901329 8.679602 -20.887704 48.083675 6.481613 -4.951826 -20.290031 3.685684 28.878914 9.649231 5.432158 0.765431 0.000000 0.000000 0.000000 7.450618 -52.110191 10.453324 10.763873 4.606627 -3.069741 5.043556 8.782002 -4.375162 -0.359472 -2.317215 -0.203895 0.000000 0.000000 0.000000 -1.718308 7.762063 -2.260966 -1.576993 12.729719 0.876728 -1.529716 15.711098 -2.539598 0.000000 0.000000 0.000000 -5.131038 7.617966 -2.977051 0.650893 -14.547073 -0.670719 6.905871 0.284793 0.432654 -11.918995 2.575417 -45.177590 -24.516134 -36.031051 -15.777534 0.000000 0.000000 0.000000 -5.060591 7.178124 -2.160351 -3.201435 16.817222 1.496664 -0.991329 1.075192 -1.789943 12.039780 -28.379079 60.999634 -27.176261 44.652997 28.002061 0.000000 0.000000 0.000000 
-1.295880 80.901039 2.676716 0.000000 0.000000 0.000000 9.019688 -46.986733 11.529154 -67.172588 15.598446 41.273180 54.637002 -21.432377 7.009447 4.131922 2.964941 -18.746270 -2.514539 -3.261600 13.038955 0.000000 0.000000 0.000000 9.050111 -45.398819 11.767614 -32.972834 8.078657 -21.259136 47.923428 6.035472 -4.810907 -19.701580 2.378599 27.269935 14.020145 5.842023 0.577425 0.000000 0.000000 0.000000 7.162131 -52.881643 10.515186 11.397253 4.220956 -3.337180 5.204151 8.772219 -4.392867 -0.471571 -2.877658 0.147752 0.000000 0.000000 0.000000 -1.805473 7.688748 -2.169948 -1.127502 12.504426 0.966426 -0.801868 16.710312 -3.534716 0.000000 0.000000 0.000000 -5.308193 7.595003 -2.910897 0.333665 -12.918706 -0.734440 7.381980 -0.983360 0.850295 -11.003045 2.695602 -44.356659 -24.369956 -36.189460 -15.773051 0.000000 0.000000 0.000000 -5.160943 7.157857 -2.015470 -3.045145 17.831093 0.808933 0.348097 2.807339 -3.146013 11.568410 -28.248575 61.446233 -27.348342 45.013088 27.801851 0.000000 0.000000 0.000000 
-1.417980 80.351105 1.163456 0.000000 0.000000 0.000000 9.575114 -50.144920 12.147246 -64.813953 12.480149 40.731061 60.268346 -21.023840 7.914856 2.979205 4.310826 -19.554265 -1.023382 -2.205593 9.894683 0.000000 0.000000 0.000000 8.665476 -47.441384 11.234514 -34.699950 8.942964 -21.468768 48.982504 6.243579 -5.010615 -17.920255 0.702856 26.994782 13.845097 6.108024 0.329722 0.000000 0.000000 0.000000 7.090028 -54.464905 10.228239 12.199766 3.658707 -3.518706 5.369821 8.688431 -4.452877 -0.493846 -3.675444 0.550850 0.000000 0.000000 0.000000 -1.700582 7.566752 -2.183292 -0.322933 11.938723 0.877967 -0.031211 17.811060 -4.872224 0.000000 0.000000 0.000000 -5.174823 7.535998 -2.888056 0.067032 -10.604112 -0.683791 7.966013 -2.724450 1.018411 -9.470813 2.986792 -42.703381 -24.309738 -36.455267 -16.238633 0.000000 0.000000 0.000000 -5.167480 7.038714 -1.976853 -3.053103 19.109671 0.149861 1.189544 4.188230 -3.523549 10.442961 -26.703396 60.334435 -26.460879 45.321170 26.082918 0.000000 0.000000 0.000000 
-1.830235 79.658112 -0.084343 0.000000 0.000000 0.000000 10.323840 -55.063571 12.472203 -61.893952 9.157937 40.207128 65.915601 -19.497589 7.893449 0.210130 6.813828 -18.035832 -0.341708 -0.976639 6.219615 0.000000 0.000000 0.000000 8.264394 -50.748592 10.458544 -37.877548 11.260792 -20.963416 51.315683 6.722846 -5.475890 -15.282058 -1.009592 27.540974 9.456150 6.049199 0.632210 0.000000 0.000000 0.000000 7.457523 -56.882140 9.697167 13.052119 3.065998 -3.511177 5.561902 8.589019 -4.510442 -0.012828 -4.073419 1.407080 0.000000 0.000000 0.000000 -1.421303 7.520238 -2.233680 0.503942 11.000704 0.642335 0.467717 18.975123 -6.388833 0.000000 0.000000 0.000000 -4.733993 7.513737 -2.851562 -0.129582 -8.020507 -0.601105 8.431470 -4.430753 0.654859 -7.090971 3.769242 -40.379078 -24.327483 -36.832102 -17.075191 0.000000 0.000000 0.000000 -4.994753 6.939336 -1.987735 -3.119786 20.696943 -0.297172 1.257971 4.723395 -2.932749 8.381065 -24.188688 58.146391 -24.685938 44.896432 23.139001 0.000000 0.000000 0.000000 
-2.430647 79.102036 -0.733757 0.000000 0.000000 0.000000 10.963184 -60.904701 12.121590 -58.755726 6.612435 39.179007 70.841151 -16.961178 6.519421 -5.116768 9.389573 -13.362400 -0.398251 0.150563 3.157504 0.000000 0.000000 0.000000 8.551282 -55.377917 9.715914 -41.696529 14.293609 -19.043559 53.575403 6.763743 -5.923975 -13.087482 -2.695392 27.362303 4.493402 5.523535 1.355394 0.000000 0.000000 0.000000 7.915530 -60.448212 8.839002 13.833817 2.614678 -3.183685 5.801947 8.568127 -4.457568 0.815104 -4.279151 2.281304 0.000000 0.000000 0.000000 -1.010070 7.596326 -2.216708 1.161446 9.797351 0.189210 0.512656 20.210465 -7.803855 0.000000 0.000000 0.000000 -4.043637 7.581562 -2.717475 -0.244240 -5.430679 -0.715310 8.752978 -5.219084 0.385436 -3.584936 5.145640 -38.062103 -24.182297 -37.465422 -18.010931 0.000000 0.000000 0.000000 -4.663370 6.966510 -1.957564 -3.172735 22.656637 -0.451940 1.141112 4.407936 -1.383902 5.215171 -20.922541 55.254588 -22.478854 43.175152 19.577873 0.000000 0.000000 0.000000 
-3.034797 78.750465 -0.728813 0.000000 0.000000 0.000000 11.355289 -66.976309 11.006544 -57.286958 4.470495 37.121815 76.103593 -14.775851 4.696140 -9.821787 9.594070 -8.763372 -0.904468 1.207344 1.393684 0.000000 0.000000 0.000000 10.093153 -61.112872 9.593714 -45.621706 17.322073 -15.622075 54.611420 6.169462 -6.144364 -11.930044 -3.868748 25.737577 1.572840 4.568001 2.068274 0.000000 0.000000 0.000000 8.824668 -65.225930 8.098251 14.320800 2.375666 -2.503014 6.112056 8.661469 -4.163522 0.881038 -4.162619 2.511270 0.000000 0.000000 0.000000 -0.490440 7.781086 -2.018581 1.639337 8.257185 -0.523103 0.231529 21.148523 -8.779967 0.000000 0.000000 0.000000 -3.252206 7.725743 -2.393604 -0.282100 -3.006875 -1.091530 8.776580 -5.025420 0.299180 1.409323 6.558249 -36.711051 -23.630233 -38.808213 -18.747773 0.000000 0.000000 0.000000 -4.208706 7.092842 -1.768786 -3.180371 25.021681 -0.191135 0.971319 3.293209 0.506556 1.231364 -16.895093 52.227380 -20.020072 39.461189 15.871893 0.000000 0.000000 0.000000 
-3.656587 78.685120 -0.442390 0.000000 0.000000 0.000000 12.237839 -72.550276 9.908397 -58.100765 2.637346 33.682518 81.816760 -13.694535 3.291268 -10.916702 6.520260 -6.375863 -2.369411 2.090516 0.891954 0.000000 0.000000 0.000000 13.569125 -67.687871 10.917605 -49.435676 19.479910 -11.462270 53.588244 5.472828 -6.164053 -10.062559 -3.654674 24.085342 0.347685 3.502477 2.020965 0.000000 0.000000 0.000000 11.594629 -71.228334 8.984325 14.478973 2.343659 -1.552238 6.447805 8.822437 -3.564655 0.329999 -3.705427 2.504152 0.000000 0.000000 0.000000 0.084041 7.995092 -1.547186 1.846825 6.396118 -1.300317 -0.357889 21.034522 -8.839549 0.000000 0.000000 0.000000 -2.506853 7.894801 -1.825047 -0.272660 -0.934725 -1.778807 8.323359 -4.217092 0.422610 8.092742 6.948129 -37.183318 -22.309310 -41.139230 -18.818938 0.000000 0.000000 0.000000 -3.675556 7.225300 -1.345877 -3.170213 27.896374 0.512105 0.800625 1.827877 1.714218 -2.766084 -11.837262 49.388090 -17.516343 33.999903 12.433837 0.000000 0.000000 0.000000 
-4.314222 79.007736 -0.232971 0.000000 0.000000 0.000000 17.037931 -78.040826 12.562403 -59.955667 1.064569 28.011917 86.644836 -13.489480 2.909038 -8.961143 1.074765 -6.388061 -7.695663 2.613956 2.726531 0.000000 0.000000 0.000000 21.709056 -75.245189 17.036934 -52.979394 20.395626 -7.553258 50.089909 5.592484 -6.109183 -5.265015 -1.052671 24.395583 -0.435850 2.547213 0.716258 0.000000 0.000000 0.000000 19.896725 -78.141100 15.454070 14.322874 2.365847 -0.433357 6.727402 8.921999 -2.609185 -0.304743 -3.265314 1.994510 0.000000 0.000000 0.000000 0.578470 8.106069 -0.713787 1.676170 4.115976 -2.002016 -1.298136 19.206243 -7.630200 0.000000 0.000000 0.000000 -1.929339 7.996169 -0.990767 -0.252850 0.747241 -2.554362 7.644305 -3.277193 1.078763 16.313471 5.005823 -39.751308 -20.052218 -44.673146 -17.857953 0.000000 0.000000 0.000000 -3.146464 7.242260 -0.673616 -3.204222 31.153265 1.787375 0.570635 -0.360022 2.159410 -5.998541 -4.983441 46.851498 -15.177742 28.411613 9.630694 0.000000 0.000000 0.000000 
-4.840051 79.969345 -0.314667 0.000000 0.000000 0.000000 38.584210 -83.627265 32.321295 -60.715724 -0.525595 19.641961 88.756000 -13.115618 3.306777 -7.696386 -4.780620 -6.972313 -17.046897 2.526801 6.234619 0.000000 0.000000 0.000000 49.579220 -82.535651 43.561225 -56.382979 20.089398 -4.732471 44.063811 7.299387 -6.102608 2.290524 4.396870 27.006134 -1.774466 1.683611 -1.381250 0.000000 0.000000 0.000000 57.118437 -84.130008 50.811611 13.769086 2.298104 0.709399 6.955853 8.825947 -1.359130 -0.843850 -2.733473 1.114434 0.000000 0.000000 0.000000 0.876561 7.964332 0.481827 1.128564 1.207544 -2.281385 -2.606811 15.206125 -5.145057 0.000000 0.000000 0.000000 -1.587219 7.908052 0.053441 -0.240174 1.672812 -3.090711 6.866043 -2.813021 1.934090 24.629225 0.562293 -43.760899 -16.626562 -48.984413 -15.513378 0.000000 0.000000 0.000000 -2.633777 7.070762 0.249792 -3.406159 34.476432 3.552673 -0.053422 -3.025779 2.028135 -7.927866 4.055677 44.355785 -12.951390 24.517942 7.405043 0.000000 0.000000 0.000000 
